<svg height="511pt" viewBox="-59 1 511 511.99999" width="511pt" xmlns="http://www.w3.org/2000/svg"><path d="M265.035 290.133a8.533 8.533 0 0 0-8.535-8.531h-42.668c-9.426 0-17.066 7.64-17.066 17.066v34.133h-8.532a8.533 8.533 0 1 0 0 17.066h8.532c9.425 0 17.066-7.64 17.066-17.066v-34.133H256.5a8.534 8.534 0 0 0 8.535-8.535zm-93.867-8.531h-34.133a8.533 8.533 0 1 0 0 17.066h34.133c4.71 0 8.531-3.82 8.531-8.535a8.532 8.532 0 0 0-8.531-8.531zm17.066 110.933a8.533 8.533 0 1 0 0 17.067h17.067c4.71 0 8.531-3.82 8.531-8.536 0-4.71-3.82-8.53-8.531-8.53zm0 0"/><path d="M358.898 512v-17.066c-.14-40.973-26.738-77.157-65.8-89.524a103.33 103.33 0 0 0 23.136-65.008v-7.601c18.852 0 34.133-15.281 34.133-34.133 0-18.852-15.281-34.133-34.133-34.133v-42.668h-17.066v118.535c0 47.645-38.621 86.266-86.266 86.266h-32.265c-47.64.004-86.266-38.613-86.27-86.258V221.867H77.301v42.664c-18.852 0-34.133 15.285-34.133 34.137 0 18.848 15.281 34.133 34.133 34.133v7.601a103.298 103.298 0 0 0 23.133 65.008c-39.059 12.367-65.657 48.55-65.801 89.524V512h17.066v-17.066c.125-36.914 26.418-68.555 62.688-75.426 4.41 3.75 9.133 7.117 14.113 10.07v5.621c0 37.703 30.562 68.266 68.266 68.266s68.27-30.563 68.27-68.266v-5.62a102.763 102.763 0 0 0 14.112-10.071c36.27 6.87 62.563 38.512 62.684 75.426V512zm-25.597-213.332c0 9.426-7.64 17.066-17.067 17.066v-34.132c9.426 0 17.067 7.64 17.067 17.066zm-273.067 0c0-9.426 7.641-17.066 17.067-17.066v34.132c-9.426 0-17.067-7.64-17.067-17.066zm136.532 187.73c-27.336-.03-49.82-21.535-51.078-48.843a103.047 103.047 0 0 0 34.984 6.18h32.258a103.1 103.1 0 0 0 34.988-6.18c-1.262 27.332-23.79 48.847-51.152 48.843zm0 0"/><path d="M162.633 315.734a8.533 8.533 0 0 1-8.531 8.532 8.533 8.533 0 1 1 0-17.067c4.71 0 8.53 3.82 8.53 8.535zm85.336 0c0 4.711-3.824 8.532-8.535 8.532s-8.536-3.82-8.536-8.532a8.536 8.536 0 0 1 17.07 0zM17.566 490.965c-.062-38.219 21.215-73.274 55.145-90.863l-7.887-15.137C25.242 405.485.426 446.379.5 490.965zm346.106-78.438L350.8 423.738a102.294 102.294 0 0 1 25.168 67.227h17.066a119.376 119.376 0 0 0-29.363-78.438zm-26.465-203.461a162.697 162.697 0 0 0 17.676-117.101l-16.64 3.789a145.593 145.593 0 0 1-15.813 104.781zM34.633 128c0 3.02.086 5.973.25 9.004l17.066-.941c-.172-2.66-.25-5.36-.25-8.063A143.841 143.841 0 0 1 96.434 23.227L84.62 10.907A160.77 160.77 0 0 0 34.633 128zm19.074 24.191l-16.828 2.817a159.914 159.914 0 0 0 4.094 18.023l16.402-4.726a141.378 141.378 0 0 1-3.668-16.114zM213.832 0h-34.133a8.533 8.533 0 0 0-8.531 8.535v20.367a100.885 100.885 0 0 0-26.395 10.899l-14.378-14.38a8.532 8.532 0 0 0-12.067 0l-24.14 24.142a8.532 8.532 0 0 0 0 12.066l14.386 14.379a100.958 100.958 0 0 0-10.906 26.39H77.301a8.536 8.536 0 0 0-8.535 8.536v34.132c0 4.711 3.824 8.536 8.535 8.536h20.367a100.958 100.958 0 0 0 10.906 26.39l-14.386 14.38a8.532 8.532 0 0 0 0 12.065l24.14 24.141a8.532 8.532 0 0 0 12.067 0l14.378-14.379a101.018 101.018 0 0 0 26.395 10.899v20.367a8.533 8.533 0 0 0 8.531 8.535h34.133a8.534 8.534 0 0 0 8.535-8.535v-20.367a100.885 100.885 0 0 0 26.395-10.899l14.379 14.38a8.532 8.532 0 0 0 12.066 0l24.14-24.142a8.54 8.54 0 0 0 0-12.066l-14.386-14.379a100.948 100.948 0 0 0 10.902-26.39h20.371c4.711 0 8.532-3.825 8.532-8.536v-34.132a8.533 8.533 0 0 0-8.532-8.536h-20.37a100.948 100.948 0 0 0-10.903-26.39l14.387-14.38a8.54 8.54 0 0 0 0-12.066l-24.141-24.14a8.532 8.532 0 0 0-12.066 0L248.76 39.8a100.885 100.885 0 0 0-26.394-10.899V8.535A8.534 8.534 0 0 0 213.832 0zm31.277 57.71a8.529 8.529 0 0 0 10.871-1l13.192-13.19 12.074 12.074-13.184 13.203a8.528 8.528 0 0 0-.996 10.871 84.339 84.339 0 0 1 13.559 32.809 8.526 8.526 0 0 0 8.387 6.988h18.687v17.07h-18.687a8.527 8.527 0 0 0-8.395 6.988 84.321 84.321 0 0 1-13.562 32.809 8.533 8.533 0 0 0 1 10.871l13.191 13.203-12.074 12.074-13.192-13.183a8.534 8.534 0 0 0-10.87-1 84.39 84.39 0 0 1-32.82 13.558 8.534 8.534 0 0 0-6.99 8.391v18.688h-17.066v-18.688a8.535 8.535 0 0 0-6.988-8.398 84.39 84.39 0 0 1-32.82-13.559 8.533 8.533 0 0 0-10.871 1l-13.196 13.191-12.074-12.074 13.184-13.203a8.528 8.528 0 0 0 1-10.871 84.314 84.314 0 0 1-13.559-32.809 8.534 8.534 0 0 0-8.39-6.988H85.832v-17.07h18.688a8.532 8.532 0 0 0 8.398-6.988 84.339 84.339 0 0 1 13.559-32.809 8.533 8.533 0 0 0-1-10.871l-13.192-13.203L124.36 43.52l13.196 13.183a8.533 8.533 0 0 0 10.87 1 84.414 84.414 0 0 1 32.817-13.562 8.53 8.53 0 0 0 6.988-8.387V17.066h17.07v18.688a8.532 8.532 0 0 0 6.99 8.398 84.39 84.39 0 0 1 32.82 13.559zm0 0"/><path d="M128.5 128c0 37.703 30.566 68.266 68.266 68.266 37.703 0 68.27-30.563 68.27-68.266s-30.567-68.266-68.27-68.266c-37.684.043-68.223 30.582-68.266 68.266zm119.469 0c0 28.277-22.926 51.2-51.203 51.2s-51.2-22.923-51.2-51.2 22.922-51.2 51.2-51.2c28.265.028 51.172 22.934 51.203 51.2zm0 0"/></svg>