<svg xmlns="http://www.w3.org/2000/svg" viewBox="0 0 59 59"><path d="M26.5 2c1.654 0 3 1.346 3 3s-1.346 3-3 3a1 1 0 1 0 0 2c2.757 0 5-2.243 5-5s-2.243-5-5-5a1 1 0 1 0 0 2z"/><path d="M32.5 2c1.654 0 3 1.346 3 3s-1.346 3-3 3a1 1 0 1 0 0 2c2.757 0 5-2.243 5-5s-2.243-5-5-5a1 1 0 1 0 0 2z"/><path d="M43.399 4A5.009 5.009 0 0 0 38.5 0a1 1 0 1 0 0 2c1.654 0 3 1.346 3 3s-1.346 3-3 3a1 1 0 1 0 0 2 5.01 5.01 0 0 0 4.899-4H53.5v10h-1a1 1 0 1 0 0 2h1v8h-1a1 1 0 1 0 0 2h1v8h-1a1 1 0 1 0 0 2h1v7h-12v12h-36v-9h1a1 1 0 1 0 0-2h-1v-8h1a1 1 0 1 0 0-2h-1v-8h1a1 1 0 1 0 0-2h-1v-8h1a1 1 0 1 0 0-2h-1V6h14a1 1 0 1 0 0-2h-1.816A2.995 2.995 0 0 1 20.5 2c1.654 0 3 1.346 3 3s-1.346 3-3 3a1 1 0 1 0 0 2c2.757 0 5-2.243 5-5s-2.243-5-5-5a5.01 5.01 0 0 0-4.899 4H3.5v55h52V4H43.399zm.101 43h8.586L43.5 55.586V47zm1.415 10l8.585-8.585V57h-8.585z"/><path d="M30.5 16h-2a1 1 0 1 0 0 2h2a1 1 0 1 0 0-2zm-6 0h-2a1 1 0 1 0 0 2h2a1 1 0 1 0 0-2zm-6 0h-2a1 1 0 1 0 0 2h2a1 1 0 1 0 0-2zm22 2h2a1 1 0 1 0 0-2h-2a1 1 0 1 0 0 2zm6 0h2a1 1 0 1 0 0-2h-2a1 1 0 1 0 0 2zm-10-2h-2a1 1 0 1 0 0 2h2a1 1 0 1 0 0-2zm-23 1a1 1 0 0 0-1-1v-4a1 1 0 1 0-2 0v4a1 1 0 1 0 0 2v8a1 1 0 1 0 0 2v8a1 1 0 1 0 0 2v8a1 1 0 1 0 0 2v5a1 1 0 1 0 2 0v-5a1 1 0 1 0 0-2v-8a1 1 0 1 0 0-2v-8a1 1 0 1 0 0-2v-8a1 1 0 0 0 1-1zm23 9h-2a1 1 0 1 0 0 2h2a1 1 0 1 0 0-2zm-6 0h-2a1 1 0 1 0 0 2h2a1 1 0 1 0 0-2zm-12 0h-2a1 1 0 1 0 0 2h2a1 1 0 1 0 0-2zm6 0h-2a1 1 0 1 0 0 2h2a1 1 0 1 0 0-2zm22 2h2a1 1 0 1 0 0-2h-2a1 1 0 1 0 0 2zm-6 0h2a1 1 0 1 0 0-2h-2a1 1 0 1 0 0 2zm0 10h2a1 1 0 1 0 0-2h-2a1 1 0 1 0 0 2zm6 0h2a1 1 0 1 0 0-2h-2a1 1 0 1 0 0 2zm-10-2h-2a1 1 0 1 0 0 2h2a1 1 0 1 0 0-2zm-6 0h-2a1 1 0 1 0 0 2h2a1 1 0 1 0 0-2zm-12 0h-2a1 1 0 1 0 0 2h2a1 1 0 1 0 0-2zm6 0h-2a1 1 0 1 0 0 2h2a1 1 0 1 0 0-2zm0 10h-2a1 1 0 1 0 0 2h2a1 1 0 1 0 0-2zm12 0h-2a1 1 0 1 0 0 2h2a1 1 0 1 0 0-2zm-6 0h-2a1 1 0 1 0 0 2h2a1 1 0 1 0 0-2zm-12 0h-2a1 1 0 1 0 0 2h2a1 1 0 1 0 0-2z"/></svg>